<?xml version="1.0" encoding="utf-8"?>
<!-- Generator: Adobe Illustrator 20.1.0, SVG Export Plug-In . SVG Version: 6.00 Build 0)  -->
<svg version="1.1" id="Ebene_1" xmlns="http://www.w3.org/2000/svg" xmlns:xlink="http://www.w3.org/1999/xlink" x="0px" y="0px"
	 width="64px" height="12px" viewBox="0 0 64 12" style="enable-background:new 0 0 64 12;" xml:space="preserve">
<style type="text/css">
	.st0{fill:#FFFFFF;}
</style>
<g>
	<path class="st0" d="M4.1,3H1.3V1.2H9V3H6.3v7.8H4.1V3z"/>
	<path class="st0" d="M9.8,1.2h6.3V3h-4v1.9h3.4v1.8h-3.4V9h4.1v1.8H9.8V1.2z"/>
	<path class="st0" d="M22.8,10.8l-1.9-3.5h-1.2v3.5h-2.3V1.2H21c2.1,0,3.9,0.7,3.9,3c0,1.4-0.7,2.3-1.8,2.8l2.2,3.9L22.8,10.8
		L22.8,10.8z M19.7,5.6h1.1c1.2,0,1.8-0.5,1.8-1.4S22,2.9,20.8,2.9h-1.1C19.7,2.9,19.7,5.6,19.7,5.6z"/>
	<path class="st0" d="M26.1,1.2h2.3L31,6l1,2.1l0,0c-0.1-1-0.3-2.4-0.3-3.5V1.2h2.1v9.6h-2.3L29,6l-1-2.1h-0.1
		C28,5,28.2,6.3,28.2,7.4v3.4H26V1.2H26.1z"/>
	<path class="st0" d="M40.1,8.5H37l-0.6,2.3h-2.3l3.1-9.6H40l3.1,9.6h-2.4L40.1,8.5z M39.7,6.8l-0.2-0.9c-0.3-1-0.5-2.1-0.8-3.1
		h-0.1c-0.2,1-0.5,2.1-0.8,3.1l-0.2,0.9H39.7z"/>
	<path class="st0" d="M48.8,10.8l-1.9-3.5h-1.2v3.5h-2.3V1.2H47c2.1,0,3.9,0.7,3.9,3c0,1.4-0.7,2.3-1.8,2.8l2.2,3.9L48.8,10.8
		L48.8,10.8z M45.7,5.6h1.1c1.2,0,1.8-0.5,1.8-1.4S48,2.9,46.8,2.9h-1.1V5.6z"/>
	<path class="st0" d="M52.1,1.2h2.3v9.6h-2.3V1.2z"/>
	<path class="st0" d="M56.5,8.1c0.7,0.6,1.6,1,2.4,1c0.9,0,1.4-0.4,1.4-0.9c0-0.6-0.6-0.8-1.4-1.2l-1.3-0.5c-1-0.4-2-1.2-2-2.6
		c0-1.6,1.5-2.9,3.5-2.9c1.1,0,2.4,0.4,3.2,1.3l-1.1,1.4c-0.7-0.5-1.3-0.8-2.1-0.8s-1.3,0.3-1.3,0.9s0.7,0.8,1.5,1.1l1.3,0.5
		c1.2,0.5,2,1.3,2,2.6c0,1.6-1.4,3-3.7,3c-1.3,0-2.7-0.5-3.7-1.4L56.5,8.1z"/>
</g>
</svg>
